<svg width="162" height="162" viewBox="0 0 162 162" fill="none" xmlns="http://www.w3.org/2000/svg">
<g id="cib-amazon-aws 1">
<g id="Group">
<g id="Group_2">
<path id="Vector" d="M50.0823 83.2447C50.0823 85.0078 50.3027 86.3932 50.6176 87.4321C50.9954 88.4711 51.4677 89.6046 52.1288 90.8324C52.3807 91.2417 52.4752 91.5881 52.4752 91.9029C52.4752 92.3752 52.1603 92.8474 51.5621 93.3197L48.6026 95.2717C48.2248 95.5551 47.8155 95.681 47.3747 95.7125C46.9024 95.7125 46.4302 95.4921 45.9579 95.0513C45.2967 94.3902 44.7615 93.6345 44.2577 92.8474C43.7225 91.9344 43.2502 91.0214 42.8095 90.0768C39.1258 94.4217 34.4976 96.5941 28.9563 96.5941C24.9893 96.5941 21.8409 95.4606 19.511 93.1938C17.2127 90.8954 16.0163 87.9044 16.0163 84.1263C16.0163 80.1278 17.433 76.8534 20.2981 74.4291C23.1632 72.0048 26.9728 70.7769 31.8529 70.7769C33.4271 70.7769 35.0958 70.9028 36.8274 71.1547C38.5905 71.3751 40.3852 71.7844 42.2427 72.1937V68.7619C42.2427 65.2042 41.5186 62.6854 40.0388 61.2371C38.5276 59.7889 36.0088 59.0647 32.3566 59.0647C30.7195 59.0647 29.0193 59.2536 27.2562 59.6629C25.5245 60.1037 23.8244 60.6074 22.1872 61.2686C21.6205 61.5205 21.0852 61.7094 20.5185 61.8983C20.2981 61.9613 20.0463 62.0242 19.7944 62.0242C19.1332 62.0242 18.8184 61.552 18.8184 60.5445V58.2461C18.8184 57.522 18.9128 56.9238 19.1332 56.6089C19.4795 56.1681 19.9518 55.8218 20.4555 55.6329C22.1242 54.7828 24.0763 54.0587 26.3746 53.5235C28.7989 52.8938 31.2547 52.6104 33.742 52.6104C39.3777 52.6104 43.4391 53.8698 46.1153 56.4515C48.697 59.0017 50.0194 62.8428 50.0194 68.0378V83.3077L50.0823 83.2447ZM30.9713 90.4231C32.5141 90.4231 34.1198 90.1398 35.8199 89.5731C37.5201 89.0063 39.0313 87.9988 40.2907 86.5821C41.0463 85.669 41.6131 84.693 41.8964 83.5595C42.1798 82.4261 42.3687 81.0408 42.3687 79.4666V77.4516C40.9519 77.1053 39.5036 76.8219 38.0238 76.633C36.5756 76.4441 35.0958 76.3496 33.5845 76.3496C30.4361 76.3496 28.1063 76.9793 26.5635 78.2387C24.9893 79.4981 24.2652 81.2927 24.2652 83.654C24.2652 85.8579 24.8319 87.4951 25.9968 88.6285C27.1302 89.8249 28.7989 90.4231 30.9713 90.4231ZM68.8155 95.5236C67.9655 95.5236 67.3988 95.3977 67.0209 95.0513C66.6431 94.768 66.2968 94.1068 66.0449 93.2253L54.9624 56.7978C54.742 56.1681 54.5846 55.5385 54.5531 54.9088C54.5531 54.1531 54.9309 53.7439 55.6551 53.7439H60.2833C61.1963 53.7439 61.7945 53.8698 62.1094 54.2161C62.5187 54.4995 62.7705 55.1607 63.0539 56.0737L70.988 87.2747L78.3553 56.0737C78.5757 55.1292 78.8591 54.4995 79.2369 54.2161C79.8036 53.8698 80.4648 53.7124 81.1259 53.7439H84.8726C85.7856 53.7439 86.3838 53.8698 86.7616 54.2161C87.1395 54.4995 87.4858 55.1607 87.6747 56.0737L95.1365 87.6525L103.291 56.0737C103.606 55.1292 103.921 54.4995 104.235 54.2161C104.802 53.8698 105.432 53.7124 106.093 53.7439H110.469C111.225 53.7439 111.634 54.1217 111.634 54.9088C111.634 55.1292 111.603 55.381 111.54 55.6644C111.477 56.0737 111.351 56.4515 111.225 56.8293L99.8591 93.2253C99.5758 94.1698 99.2609 94.7995 98.8831 95.0828C98.3479 95.4292 97.7182 95.5866 97.12 95.5551H92.9641C92.051 95.5551 91.4528 95.4292 91.075 95.0828C90.6972 94.768 90.3823 94.1383 90.1934 93.1938L82.8891 62.8114L75.6162 93.1623C75.3958 94.1068 75.1124 94.7365 74.7031 95.0513C74.3253 95.3662 73.6641 95.5236 72.8141 95.5236H68.8155ZM129.329 96.783C126.873 96.783 124.448 96.4681 122.087 95.9329C119.726 95.3662 117.9 94.768 116.672 94.0438C115.916 93.6346 115.412 93.1623 115.224 92.7215C115.035 92.3122 114.909 91.8714 114.909 91.3992V89.0064C114.909 88.0303 115.318 87.5266 115.979 87.5266C116.263 87.5266 116.546 87.5581 116.829 87.6525C117.113 87.7785 117.553 87.9674 117.994 88.1248C119.6 88.8489 121.331 89.3842 123.189 89.762C125.078 90.1713 126.904 90.3287 128.793 90.3287C131.753 90.3287 134.083 89.7935 135.657 88.7545C137.231 87.8099 138.176 86.1098 138.113 84.2837C138.144 83.0558 137.672 81.8909 136.853 80.9778C136.003 80.0963 134.397 79.3092 132.068 78.5221L125.236 76.4126C121.804 75.3421 119.254 73.7364 117.711 71.627C116.2 69.6749 115.349 67.2821 115.349 64.7634C115.349 62.7799 115.79 61.0482 116.64 59.537C117.49 58.0257 118.624 56.7349 120.041 55.6959C121.457 54.6254 123.063 53.8068 124.921 53.2401C126.81 52.6734 128.793 52.4215 130.871 52.4215C131.91 52.4215 132.981 52.453 134.02 52.6104C135.09 52.7364 136.098 52.9253 137.074 53.1457C137.987 53.366 138.9 53.6179 139.75 53.8698C140.6 54.1532 141.261 54.4365 141.733 54.7199C142.3 55.0032 142.772 55.4125 143.15 55.8848C143.465 56.3571 143.622 56.8923 143.591 57.459V59.6629C143.591 60.6389 143.182 61.1742 142.52 61.1742C141.859 61.1112 141.261 60.9223 140.726 60.6074C137.892 59.3481 134.807 58.7184 131.69 58.7499C128.982 58.7499 126.873 59.1592 125.424 60.0722C123.945 60.9853 123.221 62.3391 123.221 64.2596C123.221 65.582 123.693 66.7154 124.637 67.597C125.582 68.4785 127.345 69.3916 129.832 70.2102L136.507 72.3196C139.907 73.3901 142.363 74.9328 143.811 76.8534C145.26 78.7739 145.984 80.9778 145.984 83.4651C145.984 85.4801 145.543 87.3062 144.756 88.9434C143.906 90.5176 142.772 91.9344 141.324 93.0993C139.844 94.2642 138.113 95.1143 136.098 95.744C133.988 96.4367 131.784 96.783 129.329 96.783ZM138.239 119.672C122.717 131.132 100.205 137.209 80.8426 137.209C53.703 137.209 29.2397 127.165 10.7584 110.479C9.31008 109.156 10.6324 107.362 12.3641 108.432C32.3252 120.018 56.9774 127.039 82.4483 127.039C99.6387 127.039 118.529 123.45 135.94 116.114C138.585 114.886 140.789 117.783 138.239 119.672ZM144.724 112.336C142.741 109.786 131.595 111.108 126.589 111.738C125.078 111.927 124.826 110.573 126.212 109.597C135.059 103.395 149.604 105.158 151.336 107.236C153.005 109.377 150.864 123.923 142.583 130.881C141.324 131.951 140.065 131.416 140.631 129.968C142.489 125.339 146.708 114.855 144.724 112.336Z" fill="white"/>
</g>
</g>
</g>
</svg>
