<svg width="128" height="128" viewBox="0 0 128 128" fill="none" xmlns="http://www.w3.org/2000/svg">
<g id="logo-react-svgrepo-com 1">
<path id="Vector" d="M102.665 45.18C101.387 44.7433 100.099 44.3366 98.8025 43.96C99.0175 43.085 99.2158 42.205 99.3975 41.32C102.323 27.095 100.41 15.635 93.8825 11.8625C87.6325 8.24248 77.3825 12.015 67.0425 21.035C66.0258 21.925 65.03 22.8416 64.055 23.785C63.405 23.1583 62.7383 22.545 62.055 21.945C51.2175 12.3 40.355 8.23748 33.835 12.0225C27.585 15.65 25.7275 26.4225 28.36 39.905C28.6233 41.2383 28.9192 42.5658 29.2475 43.8875C27.71 44.325 26.225 44.7925 24.805 45.2875C12.115 49.725 4 56.6825 4 63.8975C4 71.3525 12.71 78.8275 25.9425 83.36C27.0158 83.725 28.0992 84.0642 29.1925 84.3775C28.8375 85.7925 28.5233 87.2233 28.25 88.67C25.75 101.92 27.7 112.437 33.9375 116.042C40.38 119.765 51.1875 115.94 61.7225 106.715C62.5558 105.985 63.3892 105.214 64.2225 104.402C65.2758 105.421 66.3592 106.409 67.4725 107.367C77.6725 116.162 87.745 119.715 93.9725 116.1C100.41 112.365 102.503 101.065 99.785 87.3175C99.5767 86.2675 99.3367 85.1958 99.065 84.1025C99.825 83.8775 100.569 83.645 101.298 83.405C115.048 78.8375 124.005 71.4525 124.005 63.905C124 56.655 115.625 49.6525 102.665 45.18ZM70.415 24.91C79.2725 17.1825 87.5525 14.1325 91.3275 16.3125C95.345 18.635 96.9075 28 94.3825 40.2825C94.2158 41.0825 94.0358 41.88 93.8425 42.675C88.5566 41.4727 83.1963 40.6241 77.7975 40.135C74.7063 35.6822 71.3178 31.4433 67.655 27.4475C68.5517 26.5775 69.47 25.7316 70.41 24.91H70.415ZM39.4325 70.0625C40.5175 72.1625 41.6517 74.2367 42.835 76.285C44.04 78.375 45.2958 80.4342 46.6025 82.4625C42.8877 82.0586 39.1961 81.4636 35.5425 80.68C36.6025 77.25 37.9075 73.6875 39.4325 70.0625ZM39.4325 57.98C37.9325 54.4325 36.6625 50.9425 35.62 47.5725C39.045 46.805 42.695 46.1775 46.5 45.7025C45.225 47.6925 43.9983 49.7116 42.82 51.76C41.6417 53.8083 40.51 55.8816 39.425 57.98H39.4325ZM42.1575 64.0225C43.7375 60.7275 45.4392 57.4958 47.2625 54.3275C49.0842 51.1608 51.0233 48.0666 53.08 45.045C56.65 44.775 60.31 44.6325 64.0075 44.6325C67.705 44.6325 71.3875 44.775 74.955 45.0475C76.99 48.0625 78.9175 51.1458 80.7375 54.2975C82.5575 57.4492 84.2817 60.6658 85.91 63.9475C84.3033 67.2541 82.5833 70.4991 80.75 73.6825C78.9317 76.8492 77.015 79.9525 75 82.9925C71.4375 83.2425 67.75 83.38 64 83.38C60.25 83.38 56.6325 83.2625 53.135 83.035C51.0633 80.0033 49.1083 76.8958 47.27 73.7125C45.4317 70.5291 43.725 67.2991 42.15 64.0225H42.1575ZM85.1875 76.25C86.3958 74.1533 87.5558 72.0292 88.6675 69.8775C90.1914 73.3327 91.5365 76.864 92.6975 80.4575C89.0009 81.2899 85.2633 81.9283 81.5 82.37C82.77 80.355 83.9992 78.315 85.1875 76.25ZM88.6175 57.9825C87.5108 55.8741 86.36 53.7908 85.165 51.7325C83.9983 49.7025 82.7825 47.6975 81.5175 45.7175C85.345 46.2025 89.0175 46.8475 92.46 47.635C91.3532 51.1463 90.0707 54.5998 88.6175 57.9825ZM64.0575 31.12C66.5539 33.8477 68.911 36.6997 71.12 39.665C66.395 39.44 61.6667 39.44 56.935 39.665C59.2675 36.58 61.655 33.7175 64.0575 31.12ZM36.415 16.465C40.43 14.135 49.3075 17.465 58.665 25.7825C59.2625 26.315 59.865 26.8725 60.465 27.45C56.7834 31.4453 53.3709 35.6804 50.25 40.1275C44.8631 40.6128 39.5135 41.4479 34.235 42.6275C33.93 41.4008 33.655 40.1658 33.41 38.9225C31.1475 27.365 32.645 18.6525 36.415 16.465ZM30.5625 79.4275C29.5625 79.1425 28.575 78.8333 27.6 78.5C21.75 76.5 16.9175 73.89 13.6 71.0475C10.63 68.5 9.125 65.9575 9.125 63.8975C9.125 59.52 15.64 53.935 26.505 50.1475C27.87 49.6725 29.2467 49.2383 30.635 48.845C32.2486 54.0307 34.2029 59.1042 36.485 64.0325C34.1757 69.0289 32.1972 74.1716 30.5625 79.4275ZM58.345 102.845C53.6875 106.925 49.0225 109.817 44.91 111.275C41.215 112.582 38.2725 112.62 36.495 111.592C32.71 109.405 31.135 100.957 33.2825 89.6275C33.5375 88.2942 33.8292 86.9608 34.1575 85.6275C39.4888 86.7759 44.8922 87.5602 50.33 87.975C53.4814 92.4452 56.9221 96.7043 60.63 100.725C59.885 101.457 59.1225 102.162 58.345 102.845ZM64.2 97.04C61.77 94.4125 59.345 91.505 56.98 88.38C59.2783 88.47 61.6183 88.515 64 88.515C66.445 88.515 68.865 88.4625 71.25 88.355C69.049 91.3679 66.696 94.2666 64.2 97.04ZM95.33 104.187C94.615 108.047 93.1775 110.622 91.4 111.652C87.6175 113.847 79.53 110.995 70.81 103.472C69.81 102.612 68.81 101.69 67.7925 100.722C71.4282 96.6862 74.7883 92.4098 77.85 87.9225C83.3179 87.4592 88.7475 86.6197 94.1 85.41C94.345 86.4 94.5617 87.37 94.75 88.32C95.9525 94.395 96.125 99.89 95.33 104.187ZM99.68 78.5275C99.025 78.745 98.35 78.955 97.665 79.16C95.9866 73.9498 93.9561 68.8598 91.5875 63.925C93.8673 59.056 95.8183 54.0398 97.4275 48.91C98.655 49.2675 99.8475 49.6425 100.995 50.04C112.1 53.87 118.875 59.54 118.875 63.8975C118.875 68.5475 111.558 74.5825 99.68 78.5275Z" fill="white"/>
<path id="Vector_2" d="M64 74.6375C66.1276 74.6444 68.2095 74.0199 69.9819 72.8429C71.7543 71.6658 73.1376 69.9894 73.9566 68.0257C74.7756 66.062 74.9935 63.8994 74.5827 61.8118C74.1719 59.7242 73.1508 57.8055 71.6488 56.2986C70.1468 54.7917 68.2314 53.7643 66.1451 53.3467C64.0589 52.9291 61.8956 53.1399 59.9293 53.9525C57.9629 54.7651 56.2819 56.1429 55.0992 57.9115C53.9164 59.6801 53.285 61.7599 53.285 63.8875C53.282 65.2971 53.5569 66.6935 54.0939 67.9968C54.6309 69.3001 55.4195 70.4848 56.4146 71.4831C57.4097 72.4815 58.5919 73.274 59.8934 73.8152C61.1949 74.3564 62.5904 74.6359 64 74.6375Z" fill="white"/>
</g>
</svg>
